/* XPM */
static char * close_active_xpm[] = {
"20 6 3 1",
" 	c None",
".	c #FFFFFF",
"+	c #FF8080",
"....................",
"++++++++++++++++++++",
"++++++++++++++++++++",
"++++++++++++++++++++",
"++++++++++++++++++++",
"++++++++++++++++++++"};
