/* XPM */
static char * hide_active_xpm[] = {
"20 6 3 1",
" 	c None",
".	c #FFFFFF",
"+	c #2C89A0",
"....................",
"++++++++++++++++++++",
"++++++++++++++++++++",
"++++++++++++++++++++",
"++++++++++++++++++++",
"++++++++++++++++++++"};
