/* XPM */
static char * maximize_inactive_xpm[] = {
"20 6 3 1",
" 	c None",
".	c #FFFFFF",
"+	c #164450",
"....................",
"++++++++++++++++++++",
"++++++++++++++++++++",
"++++++++++++++++++++",
"++++++++++++++++++++",
"++++++++++++++++++++"};
